<svg width="10" height="10" viewBox="0 0 10 10" fill="none" xmlns="http://www.w3.org/2000/svg">
<path d="M2.2384 9.79779C2.12883 9.79779 2.02004 9.76361 1.92718 9.69647C1.75422 9.57112 1.67342 9.35566 1.7205 9.14775L2.36383 6.31389L0.182068 4.40054C0.0216944 4.26054 -0.0395712 4.03882 0.0262722 3.83595C0.0921156 3.63346 0.271258 3.4901 0.483361 3.4705L3.37009 3.20842L4.5114 0.53753C4.59556 0.341297 4.78721 0.214569 5.00015 0.214569C5.2131 0.214569 5.40475 0.341297 5.48891 0.537072L6.63022 3.20842L9.51649 3.4705C9.72905 3.48965 9.90819 3.63346 9.97404 3.83595C10.0399 4.03844 9.979 4.26054 9.81862 4.40054L7.63686 6.31351L8.28019 9.14729C8.32734 9.35566 8.24647 9.57112 8.07358 9.69609C7.90108 9.82106 7.67105 9.83068 7.48938 9.7215L5.00015 8.23396L2.51092 9.72234C2.42677 9.77231 2.333 9.79779 2.2384 9.79779V9.79779ZM5.00015 7.59315C5.09476 7.59315 5.18845 7.61855 5.27268 7.66853L7.62191 9.07359L7.01475 6.39889C6.97141 6.20853 7.03603 6.00978 7.18313 5.88099L9.2432 4.0743L6.51768 3.8268C6.32145 3.80887 6.15268 3.6855 6.076 3.50468L5.00015 0.984166L3.92301 3.50506C3.84717 3.68466 3.6784 3.80803 3.48263 3.82596L0.756729 4.07346L2.81672 5.88015C2.96427 6.00932 3.02882 6.20769 2.9851 6.3985L2.3784 9.07313L4.72763 7.66853C4.81178 7.61855 4.90555 7.59315 5.00015 7.59315V7.59315ZM3.34804 3.26007C3.34804 3.26007 3.34804 3.26053 3.34759 3.26091L3.34804 3.26007ZM6.65143 3.25885L6.65188 3.25969C6.65188 3.25923 6.65188 3.25923 6.65143 3.25885Z" fill="black"/>
</svg>
