<svg width="31" height="31" viewBox="0 0 31 31" fill="none" xmlns="http://www.w3.org/2000/svg">
<mask id="path-1-inside-1_16_27" fill="white">
<path d="M15.5 31C6.94271 31 0 24.0573 0 15.5C0 12.4065 0.907326 9.52396 2.47025 7.10417C5.23069 2.83035 10.0362 0 15.5 0C18.5935 0 21.476 0.907327 23.8958 2.47026C28.1696 5.23069 31 10.0362 31 15.5C31 18.5935 30.0927 21.476 28.5297 23.8958C25.7693 28.1697 20.9638 31 15.5 31Z"/>
</mask>
<path d="M31.314 12.7253C31.7045 12.3347 31.7045 11.7016 31.314 11.311C30.9234 10.9205 30.2903 10.9205 29.8997 11.311L31.314 12.7253ZM23.8958 18.7292L24.6029 19.4363L23.8958 18.7292ZM18.2747 31.314C18.6653 31.7045 19.2984 31.7045 19.689 31.314C20.0795 30.9234 20.0795 30.2903 19.689 29.8997L18.2747 31.314ZM8.06396 18.2747C7.67343 17.8842 7.04027 17.8842 6.64974 18.2747C6.25922 18.6653 6.25922 19.2984 6.64974 19.689L8.06396 18.2747ZM6.10417 28.4167C6.10417 28.969 6.55188 29.4167 7.10417 29.4167C7.65645 29.4167 8.10417 28.969 8.10417 28.4167H6.10417ZM-0.313955 18.2747C-0.70448 18.6653 -0.70448 19.2984 -0.313956 19.689C0.0765687 20.0795 0.709734 20.0795 1.10026 19.689L-0.313955 18.2747ZM12.7253 8.06396C13.1158 7.67343 13.1158 7.04027 12.7253 6.64974C12.3347 6.25922 11.7016 6.25922 11.311 6.64974L12.7253 8.06396ZM12.7253 -0.313956C12.3347 -0.70448 11.7016 -0.70448 11.311 -0.313955C10.9205 0.0765689 10.9205 0.709734 11.311 1.10026L12.7253 -0.313956ZM18.7292 7.10417L19.4363 6.39706L18.7292 7.10417ZM2.46951 6.10417C1.91722 6.10417 1.46951 6.55188 1.46951 7.10417C1.46951 7.65645 1.91722 8.10417 2.46951 8.10417V6.10417ZM24.8958 2.46951C24.8958 1.91722 24.4481 1.46951 23.8958 1.46951C23.3436 1.46951 22.8958 1.91722 22.8958 2.46951H24.8958ZM28.5305 24.8958C29.0828 24.8958 29.5305 24.4481 29.5305 23.8958C29.5305 23.3436 29.0828 22.8958 28.5305 22.8958V24.8958ZM29.8997 11.311L23.1887 18.0221L24.6029 19.4363L31.314 12.7253L29.8997 11.311ZM23.1887 18.0221L18.0221 23.1887L19.4363 24.6029L24.6029 19.4363L23.1887 18.0221ZM19.689 29.8997L12.9779 23.1887L11.5637 24.6029L18.2747 31.314L19.689 29.8997ZM12.9779 23.1887L8.06396 18.2747L6.64974 19.689L11.5637 24.6029L12.9779 23.1887ZM8.10417 28.4167V12.2708H6.10417V28.4167H8.10417ZM1.10026 19.689L7.81127 12.9779L6.39706 11.5637L-0.313955 18.2747L1.10026 19.689ZM7.81127 12.9779L12.7253 8.06396L11.311 6.64974L6.39706 11.5637L7.81127 12.9779ZM11.311 1.10026L18.0221 7.81127L19.4363 6.39706L12.7253 -0.313956L11.311 1.10026ZM18.0221 7.81127L23.1887 12.9779L24.6029 11.5637L19.4363 6.39706L18.0221 7.81127ZM22.8958 12.2708V18.7292H24.8958V12.2708H22.8958ZM2.47025 8.10417H18.7292V6.10417H2.47025V8.10417ZM24.8958 12.2708V2.47026H22.8958V12.2708H24.8958ZM2.46951 8.10417H2.47025V6.10417H2.46951V8.10417ZM22.8958 2.46951V2.47026H24.8958V2.46951H22.8958ZM28.5297 22.8958H18.7292V24.8958H28.5297V22.8958ZM28.5305 22.8958H28.5297V24.8958H28.5305V22.8958ZM18.7292 22.8958H12.2708V24.8958H18.7292V22.8958ZM23.8958 2.47026L24.981 0.790224V0.790223L23.8958 2.47026ZM2.47025 7.10417L4.15029 8.18929L2.47025 7.10417ZM28.5297 23.8958L26.8497 22.8107V22.8107L28.5297 23.8958ZM-2 15.5C-2 25.1619 5.83814 33 15.5 33V29C8.04728 29 2 22.9527 2 15.5H-2ZM24.981 0.790223C22.2478 -0.975141 18.9902 -2 15.5 -2V2C18.1969 2 20.7043 2.78979 22.8107 4.15029L24.981 0.790223ZM15.5 -2C9.32847 -2 3.90318 1.19944 0.790223 6.01904L4.15029 8.18929C6.5582 4.46126 10.744 2 15.5 2V-2ZM0.790223 6.01904C-0.975142 8.75225 -2 12.0098 -2 15.5H2C2 12.8031 2.78979 10.2957 4.15029 8.18929L0.790223 6.01904ZM33 15.5C33 9.32847 29.8006 3.90318 24.981 0.790224L22.8107 4.15029C26.5387 6.5582 29 10.744 29 15.5H33ZM15.5 33C21.6715 33 27.0968 29.8006 30.2098 24.981L26.8497 22.8107C24.4418 26.5387 20.256 29 15.5 29V33ZM30.2098 24.981C31.9751 22.2478 33 18.9902 33 15.5H29C29 18.1969 28.2102 20.7043 26.8497 22.8107L30.2098 24.981Z" fill="white" mask="url(#path-1-inside-1_16_27)"/>
</svg>
