<svg width="58" height="57" viewBox="0 0 58 57" fill="none" xmlns="http://www.w3.org/2000/svg">
<path d="M2.09345 9.75152C1.45599 10.1144 0.926292 10.64 0.55849 11.2746C0.190687 11.9092 -0.00203345 12.6301 2.16755e-05 13.3636V51.7832C-0.00229355 52.499 0.180901 53.2032 0.531745 53.8271C0.88259 54.451 1.38911 54.9734 2.00194 55.3433C2.61476 55.7133 3.31298 55.9181 4.02852 55.9378C4.74406 55.9576 5.45251 55.7916 6.08481 55.4561C6.14048 55.4263 6.19485 55.3952 6.24793 55.3602L17.141 48.2333C17.2857 48.1389 17.4044 48.0099 17.4865 47.858C17.5686 47.706 17.6114 47.536 17.611 47.3633V1.0917C17.6115 0.903036 17.5605 0.717806 17.4634 0.556014C17.3664 0.394221 17.227 0.262014 17.0602 0.173664C16.8935 0.0853146 16.7059 0.0441795 16.5175 0.0547003C16.3291 0.0652211 16.1472 0.126998 15.9914 0.233361L2.09345 9.75152ZM23.3501 0.167335C23.1939 0.065828 23.0133 0.00830875 22.8272 0.000834476C22.6411 -0.0066398 22.4564 0.0362074 22.2926 0.124864C22.1288 0.213521 21.9919 0.344706 21.8964 0.504604C21.8009 0.664502 21.7503 0.847196 21.7499 1.03345V47.3244C21.7495 47.4971 21.7923 47.6672 21.8744 47.8191C21.9564 47.9711 22.0752 48.1001 22.2199 48.1944L34.6484 56.2756C34.8046 56.3775 34.9855 56.4353 35.1719 56.4429C35.3583 56.4505 35.5433 56.4076 35.7074 56.3187C35.8714 56.2299 36.0084 56.0984 36.1039 55.9381C36.1994 55.7778 36.2498 55.5947 36.2498 55.4081V9.14693C36.2503 8.97389 36.2074 8.80349 36.1251 8.65129C36.0428 8.49909 35.9237 8.36994 35.7786 8.27564L23.3501 0.167335ZM55.9969 1.09429C55.3864 0.720642 54.6886 0.513501 53.973 0.493512C53.2575 0.473522 52.5492 0.641382 51.9188 0.980366C51.863 1.00902 51.8089 1.04102 51.757 1.07617L40.8626 8.19667C40.718 8.291 40.5992 8.42001 40.5171 8.57196C40.435 8.7239 40.3922 8.89396 40.3927 9.06666V55.3447C40.392 55.5336 40.4429 55.7191 40.5401 55.8811C40.6372 56.0431 40.7767 56.1754 40.9437 56.2638C41.1106 56.3522 41.2985 56.3933 41.4871 56.3826C41.6756 56.3718 41.8577 56.3098 42.0135 56.2031L55.8752 46.6927C56.5204 46.3327 57.0576 45.8069 57.4311 45.1695C57.8046 44.5321 58.001 43.8064 57.9997 43.0677V4.74646C58.0082 4.01684 57.8284 3.29736 57.4775 2.65758C57.1267 2.01779 56.6167 1.47935 55.9969 1.09429Z" fill="black"/>
</svg>
