<svg width="58" height="58" viewBox="0 0 58 58" fill="none" xmlns="http://www.w3.org/2000/svg">
<path d="M56.0667 58H3.86667C2.84116 58 1.85766 57.5926 1.13252 56.8675C0.40738 56.1423 0 55.1588 0 54.1333V1.93333C0 1.42058 0.20369 0.92883 0.56626 0.56626C0.92883 0.20369 1.42058 0 1.93333 0C2.44609 0 2.93784 0.20369 3.30041 0.56626C3.66298 0.92883 3.86667 1.42058 3.86667 1.93333V54.1333H56.0667C56.5794 54.1333 57.0712 54.337 57.4337 54.6996C57.7963 55.0622 58 55.5539 58 56.0667C58 56.5794 57.7963 57.0712 57.4337 57.4337C57.0712 57.7963 56.5794 58 56.0667 58Z" fill="black"/>
<path d="M16.9167 50.2667H12.0833C10.9296 50.2667 9.8232 49.8084 9.00742 48.9926C8.19164 48.1768 7.73333 47.0704 7.73333 45.9167V27.55C7.73333 26.3963 8.19164 25.2899 9.00742 24.4741C9.8232 23.6583 10.9296 23.2 12.0833 23.2H16.9167C18.0704 23.2 19.1768 23.6583 19.9926 24.4741C20.8084 25.2899 21.2667 26.3963 21.2667 27.55V45.9167C21.2667 47.0704 20.8084 48.1768 19.9926 48.9926C19.1768 49.8084 18.0704 50.2667 16.9167 50.2667ZM34.3167 50.2667H29.4833C28.3296 50.2667 27.2232 49.8084 26.4074 48.9926C25.5916 48.1768 25.1333 47.0704 25.1333 45.9167V21.75C25.1333 20.5963 25.5916 19.4899 26.4074 18.6741C27.2232 17.8583 28.3296 17.4 29.4833 17.4H34.3167C35.4704 17.4 36.5768 17.8583 37.3926 18.6741C38.2084 19.4899 38.6667 20.5963 38.6667 21.75V45.9167C38.6667 47.0704 38.2084 48.1768 37.3926 48.9926C36.5768 49.8084 35.4704 50.2667 34.3167 50.2667ZM51.6732 50.2667H46.8398C45.6861 50.2667 44.5797 49.8084 43.7639 48.9926C42.9481 48.1768 42.4898 47.0704 42.4898 45.9167V14.0167C42.4898 12.863 42.9481 11.7565 43.7639 10.9408C44.5797 10.125 45.6861 9.66667 46.8398 9.66667H51.6732C52.8269 9.66667 53.9333 10.125 54.7491 10.9408C55.5649 11.7565 56.0232 12.863 56.0232 14.0167V45.9167C56.0232 47.0704 55.5649 48.1768 54.7491 48.9926C53.9333 49.8084 52.8269 50.2667 51.6732 50.2667Z" fill="black"/>
</svg>
