<svg width="58" height="54" viewBox="0 0 58 54" fill="none" xmlns="http://www.w3.org/2000/svg">
<path d="M31.9198 25.4077L28.7648 22.2593C28.0422 21.5383 27.0627 21.132 26.0406 21.1293C25.0184 21.1266 24.0368 21.5277 23.3103 22.2449L1.37517 42.4382C0.576449 43.1892 0.0520252 44.1462 0.00369119 45.2178C-0.0195642 45.7492 0.0672578 46.2798 0.258737 46.7762C0.450216 47.2727 0.742241 47.7245 1.11658 48.1034L5.82914 52.8561C5.83165 52.8592 5.83449 52.8621 5.8376 52.8646C6.56584 53.5886 7.55115 53.9967 8.57935 54H8.72193C9.79615 53.9602 10.758 53.4576 11.5217 52.6536L31.9065 30.8728C32.268 30.5153 32.5552 30.0902 32.7515 29.6217C32.9479 29.1533 33.0496 28.6508 33.0509 28.143C33.0521 27.6353 32.9528 27.1323 32.7587 26.6629C32.5646 26.1935 32.2796 25.767 31.9198 25.4077ZM57.2758 19.0446L57.2384 19.0073L53.0974 14.9187C52.8548 14.6775 52.5667 14.4867 52.2498 14.3572C51.9329 14.2277 51.5935 14.1621 51.251 14.1642C50.6961 14.1647 50.1555 14.3392 49.7055 14.6632C49.7055 14.6113 49.7128 14.5607 49.7164 14.5161C49.7708 13.7326 49.8554 12.549 49.0881 11.4762C48.1758 10.2496 47.1742 9.09177 46.0913 8.01201C46.0884 8.0085 46.0852 8.00527 46.0817 8.00237C44.4722 6.42094 40.9692 3.4425 35.6029 1.2596C33.5677 0.426414 31.3888 -0.00149136 29.189 3.90525e-06C25.3754 3.90525e-06 22.4754 1.71643 21.3649 2.73375C20.7361 3.33285 20.1626 3.98718 19.6515 4.68884C19.4072 5.0251 19.2783 5.43101 19.2839 5.8462C19.2895 6.2614 19.4293 6.6637 19.6825 6.9933C19.9356 7.32291 20.2887 7.56219 20.6891 7.67559C21.0896 7.78898 21.516 7.77043 21.905 7.62268C22.2439 7.49631 22.5901 7.39045 22.9418 7.30567C23.6742 7.15117 24.4253 7.10447 25.1712 7.16706C26.765 7.29844 28.65 8.08795 29.4838 8.74487C30.8976 9.87911 31.5779 11.4075 31.6902 13.6977C31.712 14.1581 30.7574 15.8842 29.2735 17.8538C28.9909 18.2254 28.8529 18.6867 28.8851 19.1522C28.9173 19.6176 29.1176 20.0556 29.4487 20.385L33.6067 24.5326C33.9561 24.882 34.4264 25.0845 34.9209 25.0984C35.4154 25.1123 35.8965 24.9365 36.265 24.6074C37.4408 23.5599 39.2315 21.9809 39.8575 21.594C40.7867 21.0238 41.4513 20.9142 41.6337 20.8949C42.1072 20.8486 42.5835 20.9487 42.998 21.1817C43 21.2024 42.9978 21.2232 42.9913 21.2429C42.9849 21.2626 42.9744 21.2808 42.9605 21.2963L42.7406 21.5048L42.7043 21.5385C42.4613 21.78 42.2686 22.0671 42.1373 22.3832C42.006 22.6993 41.9387 23.0382 41.9393 23.3804C41.9399 23.7225 42.0083 24.0612 42.1406 24.3769C42.273 24.6926 42.4666 24.979 42.7104 25.2197L46.8502 29.3071C47.0928 29.5481 47.3809 29.7387 47.6978 29.868C48.0147 29.9973 48.3542 30.0627 48.6965 30.0604C49.3841 30.0615 50.0445 29.7931 50.5357 29.3131L57.242 22.7053C57.265 22.6824 57.2879 22.6583 57.3097 22.6342C57.7596 22.1422 58.0062 21.4987 57.9999 20.8328C57.9936 20.1669 57.7349 19.5281 57.2758 19.0446Z" fill="black"/>
</svg>
