<svg width="228" height="48" viewBox="0 0 228 48" fill="none" xmlns="http://www.w3.org/2000/svg">
<g filter="url(#filter0_d)">
<path d="M5 27.84V25H28.76V30.16L23.54 29.44V27.84H13.2V36.16H23.54V34.56L28.76 33.84V39H7.98V27.84H5ZM30.9516 30.6V25H53.3316V30.6L48.1116 29.88V27.84H44.7516V39H39.5316V27.84H36.1716V29.88L30.9516 30.6ZM53.1055 36.24V33.1L56.0855 32.6V25H76.8655V32.24L61.3055 34.86V39H56.0855V35.74L53.1055 36.24ZM61.3055 31.72L71.6455 29.98V27.84H61.3055V31.72ZM80.0664 39V25H100.846V39H80.0664ZM85.2864 36.16H95.6264V27.84H85.2864V36.16ZM104.852 39V25H110.072V33.28L120.412 28.74V25H125.632V26.44L128.612 25.14V28.88L125.632 30.18V39H120.412V32.48L110.072 37.02V39H104.852ZM129.213 30.6V25H151.593V30.6L146.373 29.88V27.84H143.013V39H137.793V27.84H134.433V29.88L129.213 30.6ZM152.188 27.84V25H175.968V30.16L170.748 29.44V27.84H160.408V30.58H168.908V33.42H160.408V36.16H170.748V34.56L175.968 33.84V39H155.188V27.84H152.188ZM177.759 39L182.639 27.84H180.159V25H194.059L200.139 39H194.739L189.859 27.84H188.059L183.179 39H177.759ZM198.496 31.22V28.1L201.496 28.6V25H206.716V29.5L222.276 32.12V39H201.496V31.72L198.496 31.22ZM206.716 36.16H217.056V34.38L206.716 32.64V36.16Z" fill="#6A6969"/>
<path d="M5 27.84H4V28.84H5V27.84ZM5 25V24H4V25H5ZM28.76 25H29.76V24H28.76V25ZM28.76 30.16L28.6234 31.1506L29.76 31.3074V30.16H28.76ZM23.54 29.44H22.54V30.3115L23.4034 30.4306L23.54 29.44ZM23.54 27.84H24.54V26.84H23.54V27.84ZM13.2 27.84V26.84H12.2V27.84H13.2ZM13.2 36.16H12.2V37.16H13.2V36.16ZM23.54 36.16V37.16H24.54V36.16H23.54ZM23.54 34.56L23.4034 33.5694L22.54 33.6885V34.56H23.54ZM28.76 33.84H29.76V32.6926L28.6234 32.8494L28.76 33.84ZM28.76 39V40H29.76V39H28.76ZM7.98 39H6.98V40H7.98V39ZM7.98 27.84H8.98V26.84H7.98V27.84ZM6 27.84V25H4V27.84H6ZM5 26H28.76V24H5V26ZM27.76 25V30.16H29.76V25H27.76ZM28.8966 29.1694L23.6766 28.4494L23.4034 30.4306L28.6234 31.1506L28.8966 29.1694ZM24.54 29.44V27.84H22.54V29.44H24.54ZM23.54 26.84H13.2V28.84H23.54V26.84ZM12.2 27.84V36.16H14.2V27.84H12.2ZM13.2 37.16H23.54V35.16H13.2V37.16ZM24.54 36.16V34.56H22.54V36.16H24.54ZM23.6766 35.5506L28.8966 34.8306L28.6234 32.8494L23.4034 33.5694L23.6766 35.5506ZM27.76 33.84V39H29.76V33.84H27.76ZM28.76 38H7.98V40H28.76V38ZM8.98 39V27.84H6.98V39H8.98ZM7.98 26.84H5V28.84H7.98V26.84ZM30.9516 30.6H29.9516V31.7474L31.0882 31.5906L30.9516 30.6ZM30.9516 25V24H29.9516V25H30.9516ZM53.3316 25H54.3316V24H53.3316V25ZM53.3316 30.6L53.1949 31.5906L54.3316 31.7474V30.6H53.3316ZM48.1116 29.88H47.1116V30.7515L47.9749 30.8706L48.1116 29.88ZM48.1116 27.84H49.1116V26.84H48.1116V27.84ZM44.7516 27.84V26.84H43.7516V27.84H44.7516ZM44.7516 39V40H45.7516V39H44.7516ZM39.5316 39H38.5316V40H39.5316V39ZM39.5316 27.84H40.5316V26.84H39.5316V27.84ZM36.1716 27.84V26.84H35.1716V27.84H36.1716ZM36.1716 29.88L36.3082 30.8706L37.1716 30.7515V29.88H36.1716ZM31.9516 30.6V25H29.9516V30.6H31.9516ZM30.9516 26H53.3316V24H30.9516V26ZM52.3316 25V30.6H54.3316V25H52.3316ZM53.4682 29.6094L48.2482 28.8894L47.9749 30.8706L53.1949 31.5906L53.4682 29.6094ZM49.1116 29.88V27.84H47.1116V29.88H49.1116ZM48.1116 26.84H44.7516V28.84H48.1116V26.84ZM43.7516 27.84V39H45.7516V27.84H43.7516ZM44.7516 38H39.5316V40H44.7516V38ZM40.5316 39V27.84H38.5316V39H40.5316ZM39.5316 26.84H36.1716V28.84H39.5316V26.84ZM35.1716 27.84V29.88H37.1716V27.84H35.1716ZM36.0349 28.8894L30.8149 29.6094L31.0882 31.5906L36.3082 30.8706L36.0349 28.8894ZM53.1055 36.24H52.1055V37.4218L53.2709 37.2262L53.1055 36.24ZM53.1055 33.1L52.94 32.1138L52.1055 32.2538V33.1H53.1055ZM56.0855 32.6L56.2509 33.5862L57.0855 33.4462V32.6H56.0855ZM56.0855 25V24H55.0855V25H56.0855ZM76.8655 25H77.8655V24H76.8655V25ZM76.8655 32.24L77.0315 33.2261L77.8655 33.0857V32.24H76.8655ZM61.3055 34.86L61.1394 33.8739L60.3055 34.0143V34.86H61.3055ZM61.3055 39V40H62.3055V39H61.3055ZM56.0855 39H55.0855V40H56.0855V39ZM56.0855 35.74H57.0855V34.5582L55.92 34.7538L56.0855 35.74ZM61.3055 31.72H60.3055V32.9023L61.4714 32.7061L61.3055 31.72ZM71.6455 29.98L71.8114 30.9661L72.6455 30.8258V29.98H71.6455ZM71.6455 27.84H72.6455V26.84H71.6455V27.84ZM61.3055 27.84V26.84H60.3055V27.84H61.3055ZM54.1055 36.24V33.1H52.1055V36.24H54.1055ZM53.2709 34.0862L56.2509 33.5862L55.92 31.6138L52.94 32.1138L53.2709 34.0862ZM57.0855 32.6V25H55.0855V32.6H57.0855ZM56.0855 26H76.8655V24H56.0855V26ZM75.8655 25V32.24H77.8655V25H75.8655ZM76.6994 31.2539L61.1394 33.8739L61.4715 35.8461L77.0315 33.2261L76.6994 31.2539ZM60.3055 34.86V39H62.3055V34.86H60.3055ZM61.3055 38H56.0855V40H61.3055V38ZM57.0855 39V35.74H55.0855V39H57.0855ZM55.92 34.7538L52.94 35.2538L53.2709 37.2262L56.2509 36.7262L55.92 34.7538ZM61.4714 32.7061L71.8114 30.9661L71.4795 28.9939L61.1395 30.7339L61.4714 32.7061ZM72.6455 29.98V27.84H70.6455V29.98H72.6455ZM71.6455 26.84H61.3055V28.84H71.6455V26.84ZM60.3055 27.84V31.72H62.3055V27.84H60.3055ZM80.0664 39H79.0664V40H80.0664V39ZM80.0664 25V24H79.0664V25H80.0664ZM100.846 25H101.846V24H100.846V25ZM100.846 39V40H101.846V39H100.846ZM85.2864 36.16H84.2864V37.16H85.2864V36.16ZM95.6264 36.16V37.16H96.6264V36.16H95.6264ZM95.6264 27.84H96.6264V26.84H95.6264V27.84ZM85.2864 27.84V26.84H84.2864V27.84H85.2864ZM81.0664 39V25H79.0664V39H81.0664ZM80.0664 26H100.846V24H80.0664V26ZM99.8464 25V39H101.846V25H99.8464ZM100.846 38H80.0664V40H100.846V38ZM85.2864 37.16H95.6264V35.16H85.2864V37.16ZM96.6264 36.16V27.84H94.6264V36.16H96.6264ZM95.6264 26.84H85.2864V28.84H95.6264V26.84ZM84.2864 27.84V36.16H86.2864V27.84H84.2864ZM104.852 39H103.852V40H104.852V39ZM104.852 25V24H103.852V25H104.852ZM110.072 25H111.072V24H110.072V25ZM110.072 33.28H109.072V34.8112L110.474 34.1956L110.072 33.28ZM120.412 28.74L120.814 29.6556L121.412 29.3931V28.74H120.412ZM120.412 25V24H119.412V25H120.412ZM125.632 25H126.632V24H125.632V25ZM125.632 26.44H124.632V27.9673L126.031 27.3566L125.632 26.44ZM128.612 25.14H129.612V23.6127L128.212 24.2234L128.612 25.14ZM128.612 28.88L129.011 29.7966L129.612 29.5348V28.88H128.612ZM125.632 30.18L125.232 29.2634L124.632 29.5252V30.18H125.632ZM125.632 39V40H126.632V39H125.632ZM120.412 39H119.412V40H120.412V39ZM120.412 32.48H121.412V30.9488L120.01 31.5644L120.412 32.48ZM110.072 37.02L109.67 36.1044L109.072 36.3669V37.02H110.072ZM110.072 39V40H111.072V39H110.072ZM105.852 39V25H103.852V39H105.852ZM104.852 26H110.072V24H104.852V26ZM109.072 25V33.28H111.072V25H109.072ZM110.474 34.1956L120.814 29.6556L120.01 27.8244L109.67 32.3644L110.474 34.1956ZM121.412 28.74V25H119.412V28.74H121.412ZM120.412 26H125.632V24H120.412V26ZM124.632 25V26.44H126.632V25H124.632ZM126.031 27.3566L129.011 26.0566L128.212 24.2234L125.232 25.5234L126.031 27.3566ZM127.612 25.14V28.88H129.612V25.14H127.612ZM128.212 27.9634L125.232 29.2634L126.031 31.0966L129.011 29.7966L128.212 27.9634ZM124.632 30.18V39H126.632V30.18H124.632ZM125.632 38H120.412V40H125.632V38ZM121.412 39V32.48H119.412V39H121.412ZM120.01 31.5644L109.67 36.1044L110.474 37.9356L120.814 33.3956L120.01 31.5644ZM109.072 37.02V39H111.072V37.02H109.072ZM110.072 38H104.852V40H110.072V38ZM129.213 30.6H128.213V31.7474L129.35 31.5906L129.213 30.6ZM129.213 25V24H128.213V25H129.213ZM151.593 25H152.593V24H151.593V25ZM151.593 30.6L151.457 31.5906L152.593 31.7474V30.6H151.593ZM146.373 29.88H145.373V30.7515L146.237 30.8706L146.373 29.88ZM146.373 27.84H147.373V26.84H146.373V27.84ZM143.013 27.84V26.84H142.013V27.84H143.013ZM143.013 39V40H144.013V39H143.013ZM137.793 39H136.793V40H137.793V39ZM137.793 27.84H138.793V26.84H137.793V27.84ZM134.433 27.84V26.84H133.433V27.84H134.433ZM134.433 29.88L134.57 30.8706L135.433 30.7515V29.88H134.433ZM130.213 30.6V25H128.213V30.6H130.213ZM129.213 26H151.593V24H129.213V26ZM150.593 25V30.6H152.593V25H150.593ZM151.73 29.6094L146.51 28.8894L146.237 30.8706L151.457 31.5906L151.73 29.6094ZM147.373 29.88V27.84H145.373V29.88H147.373ZM146.373 26.84H143.013V28.84H146.373V26.84ZM142.013 27.84V39H144.013V27.84H142.013ZM143.013 38H137.793V40H143.013V38ZM138.793 39V27.84H136.793V39H138.793ZM137.793 26.84H134.433V28.84H137.793V26.84ZM133.433 27.84V29.88H135.433V27.84H133.433ZM134.297 28.8894L129.077 29.6094L129.35 31.5906L134.57 30.8706L134.297 28.8894ZM152.188 27.84H151.188V28.84H152.188V27.84ZM152.188 25V24H151.188V25H152.188ZM175.968 25H176.968V24H175.968V25ZM175.968 30.16L175.831 31.1506L176.968 31.3074V30.16H175.968ZM170.748 29.44H169.748V30.3115L170.611 30.4306L170.748 29.44ZM170.748 27.84H171.748V26.84H170.748V27.84ZM160.408 27.84V26.84H159.408V27.84H160.408ZM160.408 30.58H159.408V31.58H160.408V30.58ZM168.908 30.58H169.908V29.58H168.908V30.58ZM168.908 33.42V34.42H169.908V33.42H168.908ZM160.408 33.42V32.42H159.408V33.42H160.408ZM160.408 36.16H159.408V37.16H160.408V36.16ZM170.748 36.16V37.16H171.748V36.16H170.748ZM170.748 34.56L170.611 33.5694L169.748 33.6885V34.56H170.748ZM175.968 33.84H176.968V32.6926L175.831 32.8494L175.968 33.84ZM175.968 39V40H176.968V39H175.968ZM155.188 39H154.188V40H155.188V39ZM155.188 27.84H156.188V26.84H155.188V27.84ZM153.188 27.84V25H151.188V27.84H153.188ZM152.188 26H175.968V24H152.188V26ZM174.968 25V30.16H176.968V25H174.968ZM176.104 29.1694L170.884 28.4494L170.611 30.4306L175.831 31.1506L176.104 29.1694ZM171.748 29.44V27.84H169.748V29.44H171.748ZM170.748 26.84H160.408V28.84H170.748V26.84ZM159.408 27.84V30.58H161.408V27.84H159.408ZM160.408 31.58H168.908V29.58H160.408V31.58ZM167.908 30.58V33.42H169.908V30.58H167.908ZM168.908 32.42H160.408V34.42H168.908V32.42ZM159.408 33.42V36.16H161.408V33.42H159.408ZM160.408 37.16H170.748V35.16H160.408V37.16ZM171.748 36.16V34.56H169.748V36.16H171.748ZM170.884 35.5506L176.104 34.8306L175.831 32.8494L170.611 33.5694L170.884 35.5506ZM174.968 33.84V39H176.968V33.84H174.968ZM175.968 38H155.188V40H175.968V38ZM156.188 39V27.84H154.188V39H156.188ZM155.188 26.84H152.188V28.84H155.188V26.84ZM177.759 39L176.842 38.5994L176.23 40H177.759V39ZM182.639 27.84L183.555 28.2406L184.167 26.84H182.639V27.84ZM180.159 27.84H179.159V28.84H180.159V27.84ZM180.159 25V24H179.159V25H180.159ZM194.059 25L194.976 24.6017L194.715 24H194.059V25ZM200.139 39V40H201.663L201.056 38.6017L200.139 39ZM194.739 39L193.822 39.4006L194.084 40H194.739V39ZM189.859 27.84L190.775 27.4394L190.513 26.84H189.859V27.84ZM188.059 27.84V26.84H187.404L187.142 27.4394L188.059 27.84ZM183.179 39V40H183.833L184.095 39.4006L183.179 39ZM178.675 39.4006L183.555 28.2406L181.722 27.4394L176.842 38.5994L178.675 39.4006ZM182.639 26.84H180.159V28.84H182.639V26.84ZM181.159 27.84V25H179.159V27.84H181.159ZM180.159 26H194.059V24H180.159V26ZM193.141 25.3983L199.221 39.3983L201.056 38.6017L194.976 24.6017L193.141 25.3983ZM200.139 38H194.739V40H200.139V38ZM195.655 38.5994L190.775 27.4394L188.942 28.2406L193.822 39.4006L195.655 38.5994ZM189.859 26.84H188.059V28.84H189.859V26.84ZM187.142 27.4394L182.262 38.5994L184.095 39.4006L188.975 28.2406L187.142 27.4394ZM183.179 38H177.759V40H183.179V38ZM198.496 31.22H197.496V32.0671L198.332 32.2064L198.496 31.22ZM198.496 28.1L198.66 27.1136L197.496 26.9195V28.1H198.496ZM201.496 28.6L201.332 29.5864L202.496 29.7805V28.6H201.496ZM201.496 25V24H200.496V25H201.496ZM206.716 25H207.716V24H206.716V25ZM206.716 29.5H205.716V30.3457L206.55 30.4861L206.716 29.5ZM222.276 32.12H223.276V31.2743L222.442 31.1339L222.276 32.12ZM222.276 39V40H223.276V39H222.276ZM201.496 39H200.496V40H201.496V39ZM201.496 31.72H202.496V30.8729L201.66 30.7336L201.496 31.72ZM206.716 36.16H205.716V37.16H206.716V36.16ZM217.056 36.16V37.16H218.056V36.16H217.056ZM217.056 34.38H218.056V33.5342L217.222 33.3939L217.056 34.38ZM206.716 32.64L206.882 31.6539L205.716 31.4577V32.64H206.716ZM199.496 31.22V28.1H197.496V31.22H199.496ZM198.332 29.0864L201.332 29.5864L201.66 27.6136L198.66 27.1136L198.332 29.0864ZM202.496 28.6V25H200.496V28.6H202.496ZM201.496 26H206.716V24H201.496V26ZM205.716 25V29.5H207.716V25H205.716ZM206.55 30.4861L222.11 33.1061L222.442 31.1339L206.882 28.5139L206.55 30.4861ZM221.276 32.12V39H223.276V32.12H221.276ZM222.276 38H201.496V40H222.276V38ZM202.496 39V31.72H200.496V39H202.496ZM201.66 30.7336L198.66 30.2336L198.332 32.2064L201.332 32.7064L201.66 30.7336ZM206.716 37.16H217.056V35.16H206.716V37.16ZM218.056 36.16V34.38H216.056V36.16H218.056ZM217.222 33.3939L206.882 31.6539L206.55 33.6261L216.89 35.3661L217.222 33.3939ZM205.716 32.64V36.16H207.716V32.64H205.716Z" fill="black"/>
</g>
<path d="M57 6.4V4.58H71.14V7.38L67.64 7.03V6.4H62.25V10.18H67.64V9.55L71.14 9.2V12H58.75V6.4H57ZM72.6778 7.8V4.58H85.8378V7.8L82.3378 7.45V6.4H81.0078V12H77.5078V6.4H76.1778V7.45L72.6778 7.8ZM87.5178 12V8.29L96.5478 7.17V6.4H91.0178V7.03L87.5178 7.38V4.58H100.048V12H97.5418L96.8278 11.3L96.1278 12H87.5178ZM91.0178 10.18H96.5478V8.864L91.0178 9.55V10.18ZM101.311 13.75V10.18H103.551L105.231 6.4H103.481V4.58H115.171V10.18H116.921V12H104.811V13.75H101.311ZM107.191 10.18H111.671V6.4H108.871L107.191 10.18ZM118.184 12V4.58H121.684V8.92L127.354 6.736V4.58H130.854V5.392L132.604 4.72V6.89L130.854 7.562V12H127.354V8.906L121.684 11.09V12H118.184ZM134.139 12V4.58H146.809V12H134.139ZM137.639 10.18H143.309V6.4H137.639V10.18ZM148.068 6.4V4.58H153.318V7.24H158.988V4.58H162.488V12H158.988V9.06H153.318V12H149.818V6.4H148.068Z" fill="#6A6969"/>
<defs>
<filter id="filter0_d" x="0" y="23.6127" width="227.276" height="24.3873" filterUnits="userSpaceOnUse" color-interpolation-filters="sRGB">
<feFlood flood-opacity="0" result="BackgroundImageFix"/>
<feColorMatrix in="SourceAlpha" type="matrix" values="0 0 0 0 0 0 0 0 0 0 0 0 0 0 0 0 0 0 127 0"/>
<feOffset dy="4"/>
<feGaussianBlur stdDeviation="2"/>
<feColorMatrix type="matrix" values="0 0 0 0 0 0 0 0 0 0 0 0 0 0 0 0 0 0 0.25 0"/>
<feBlend mode="normal" in2="BackgroundImageFix" result="effect1_dropShadow"/>
<feBlend mode="normal" in="SourceGraphic" in2="effect1_dropShadow" result="shape"/>
</filter>
</defs>
</svg>
