<svg width="243" height="76" viewBox="0 0 243 76" fill="none" xmlns="http://www.w3.org/2000/svg">
<g filter="url(#filter0_d_132_6)">
<rect x="12" y="12" width="219" height="52" rx="8" fill="white"/>
<rect x="13" y="13" width="217" height="50" rx="7" stroke="black" stroke-width="2"/>
</g>
<path d="M37.8158 41.04V38.7917H55.9484V42.8767L51.9647 42.3067V41.04H44.0737V47.6267H51.9647V46.36L55.9484 45.79V49.875H40.09V41.04H37.8158ZM57.621 43.225V38.7917H74.7004V43.225L70.7168 42.655V41.04H68.1525V49.875H64.1689V41.04H61.6047V42.655L57.621 43.225ZM74.5279 47.69V45.2042L76.8021 44.8083V38.7917H92.6605V44.5233L80.7858 46.5975V49.875H76.8021V47.2942L74.5279 47.69ZM80.7858 44.1117L88.6768 42.7342V41.04H80.7858V44.1117ZM95.1033 49.875V38.7917H110.961V49.875H95.1033ZM99.087 47.6267H106.978V41.04H99.087V47.6267ZM114.019 49.875V38.7917H118.002V45.3467L125.893 41.7525V38.7917H129.877V39.9317L132.151 38.9025V41.8633L129.877 42.8925V49.875H125.893V44.7133L118.002 48.3075V49.875H114.019ZM132.61 43.225V38.7917H149.689V43.225L145.706 42.655V41.04H143.142V49.875H139.158V41.04H136.594V42.655L132.61 43.225ZM150.144 41.04V38.7917H168.291V42.8767L164.308 42.3067V41.04H156.417V43.2092H162.904V45.4575H156.417V47.6267H164.308V46.36L168.291 45.79V49.875H152.433V41.04H150.144ZM169.658 49.875L173.382 41.04H171.49V38.7917H182.098L186.738 49.875H182.617L178.892 41.04H177.519L173.795 49.875H169.658ZM185.484 43.7158V41.2458L187.773 41.6417V38.7917H191.757V42.3542L203.632 44.4283V49.875H187.773V44.1117L185.484 43.7158ZM191.757 47.6267H199.648V46.2175L191.757 44.84V47.6267Z" fill="black"/>
<path d="M77.5 24.0667V22.6258H88.2911V24.8425L85.62 24.5654V24.0667H81.5066V27.0592H85.62V26.5604L88.2911 26.2833V28.5H78.8355V24.0667H77.5ZM89.4646 25.175V22.6258H99.5078V25.175L96.8367 24.8979V24.0667H95.8217V28.5H93.1507V24.0667H92.1357V24.8979L89.4646 25.175ZM100.79 28.5V25.5629L107.681 24.6762V24.0667H103.461V24.5654L100.79 24.8425V22.6258H110.352V28.5H108.44L107.895 27.9458L107.361 28.5H100.79ZM103.461 27.0592H107.681V26.0173L103.461 26.5604V27.0592ZM111.316 29.8854V27.0592H113.026L114.308 24.0667H112.972V22.6258H121.894V27.0592H123.229V28.5H113.987V29.8854H111.316ZM115.804 27.0592H119.223V24.0667H117.086L115.804 27.0592ZM124.193 28.5V22.6258H126.864V26.0617L131.191 24.3327V22.6258H133.862V23.2687L135.198 22.7367V24.4546L133.862 24.9866V28.5H131.191V26.0506L126.864 27.7796V28.5H124.193ZM136.369 28.5V22.6258H146.038V28.5H136.369ZM139.04 27.0592H143.367V24.0667H139.04V27.0592ZM146.999 24.0667V22.6258H151.006V24.7317H155.333V22.6258H158.004V28.5H155.333V26.1725H151.006V28.5H148.335V24.0667H146.999Z" fill="#272727"/>
<defs>
<filter id="filter0_d_132_6" x="0" y="0" width="243" height="76" filterUnits="userSpaceOnUse" color-interpolation-filters="sRGB">
<feFlood flood-opacity="0" result="BackgroundImageFix"/>
<feColorMatrix in="SourceAlpha" type="matrix" values="0 0 0 0 0 0 0 0 0 0 0 0 0 0 0 0 0 0 127 0" result="hardAlpha"/>
<feOffset/>
<feGaussianBlur stdDeviation="6"/>
<feComposite in2="hardAlpha" operator="out"/>
<feColorMatrix type="matrix" values="0 0 0 0 0 0 0 0 0 0 0 0 0 0 0 0 0 0 0.6 0"/>
<feBlend mode="normal" in2="BackgroundImageFix" result="effect1_dropShadow_132_6"/>
<feBlend mode="normal" in="SourceGraphic" in2="effect1_dropShadow_132_6" result="shape"/>
</filter>
</defs>
</svg>
